<svg xmlns="http://www.w3.org/2000/svg" xmlns:xlink="http://www.w3.org/1999/xlink" width="60" height="49.091" viewBox="0 0 60 49.091">
  <defs>
    <radialGradient id="radial-gradient" cx="0.225" cy="0.081" r="1.189" gradientTransform="translate(0.091) scale(0.818 1)" gradientUnits="objectBoundingBox">
      <stop offset="0" stop-color="#fff" stop-opacity="0.102"/>
      <stop offset="1" stop-color="#fff" stop-opacity="0"/>
    </radialGradient>
  </defs>
  <g id="Google_News_icon" transform="translate(-0.018 0)">
    <path id="Path_1" data-name="Path 1" d="M1375.354,33.3a1.53,1.53,0,0,1-1.53,1.52H1341.43a1.53,1.53,0,0,1-1.531-1.52V1.52A1.53,1.53,0,0,1,1341.43,0h32.394a1.53,1.53,0,0,1,1.531,1.52V33.3Z" transform="translate(-1327.61 0)" fill="#0c9d58"/>
    <path id="Path_2" data-name="Path 2" d="M3897.441,722.962,3885.3,721.4l12.141,3.257Z" transform="translate(-3849.696 -714.793)" fill="#004d40" opacity="0.2"/>
    <path id="Path_3" data-name="Path 3" d="M1350.385,167.609,1332,175.818l20.32-7.4v-.02A1.485,1.485,0,0,0,1350.385,167.609Z" transform="translate(-1319.782 -165.952)" fill="#004d40" opacity="0.2"/>
    <path id="Path_4" data-name="Path 4" d="M1373.825,0H1341.43a1.53,1.53,0,0,0-1.531,1.52V1.86a1.53,1.53,0,0,1,1.531-1.52h32.394a1.53,1.53,0,0,1,1.531,1.52V1.52A1.531,1.531,0,0,0,1373.825,0Z" transform="translate(-1327.61 0)" fill="#fff" opacity="0.2"/>
    <path id="Path_5" data-name="Path 5" d="M2192.088,549.787a1.484,1.484,0,0,0,.971,1.85l30,8.069a1.485,1.485,0,0,0,1.766-1.117l7.068-26.379a1.484,1.484,0,0,0-.971-1.85l-30-8.069a1.485,1.485,0,0,0-1.766,1.117Z" transform="translate(-2171.937 -517.463)" fill="#ea4335"/>
    <path id="Path_6" data-name="Path 6" d="M5806.4,2638.1l1.578,9.587-1.578,5.892Z" transform="translate(-5753.2 -2613.938)" fill="#3e2723" opacity="0.2"/>
    <path id="Path_7" data-name="Path 7" d="M3900.8,764.1l1.414.38.878,5.917Z" transform="translate(-3865.054 -757.102)" fill="#3e2723" opacity="0.2"/>
    <path id="Path_8" data-name="Path 8" d="M2234.661,530.36l-30-8.069a1.484,1.484,0,0,0-1.766,1.117l-7.068,26.378c-.012.044-.015.089-.023.133l7.015-26.179a1.485,1.485,0,0,1,1.766-1.117l30,8.069a1.469,1.469,0,0,1,.994,1.718l.054-.2A1.485,1.485,0,0,0,2234.661,530.36Z" transform="translate(-2175.671 -517.463)" fill="#fff" opacity="0.2"/>
    <path id="Path_9" data-name="Path 9" d="M43.835,285.991a1.485,1.485,0,0,1-.806,1.928L11.368,299.442a1.484,1.484,0,0,1-1.857-.959L.171,272.821a1.485,1.485,0,0,1,.806-1.928L32.637,259.37a1.484,1.484,0,0,1,1.857.959Z" transform="translate(-0.053 -256.916)" fill="#ffc107"/>
    <path id="Path_10" data-name="Path 10" d="M.238,273.045a1.485,1.485,0,0,1,.806-1.928L32.7,259.593a1.481,1.481,0,0,1,1.846.934l-.109-.3a1.484,1.484,0,0,0-1.857-.959L.924,270.794a1.484,1.484,0,0,0-.806,1.928l9.341,25.662c0,.008.008.016.012.025Z" transform="translate(0 -256.817)" fill="#fff" opacity="0.2"/>
    <path id="Path_11" data-name="Path 11" d="M790.764,1485.861a1.539,1.539,0,0,1-1.534,1.534h-43.3a1.539,1.539,0,0,1-1.534-1.534v-32.727a1.539,1.539,0,0,1,1.534-1.534h43.3a1.539,1.539,0,0,1,1.534,1.534Z" transform="translate(-737.564 -1438.305)" fill="#4285f4"/>
    <path id="Path_12" data-name="Path 12" d="M3502.355,2497.209H3489.4V2493.8h12.955a.681.681,0,0,1,.681.681v2.045A.682.682,0,0,1,3502.355,2497.209Z" transform="translate(-3457.422 -2470.959)" fill="#fff"/>
    <path id="Path_13" data-name="Path 13" d="M3502.355,3911.51H3489.4V3908.1h12.955a.681.681,0,0,1,.681.682v2.045A.681.681,0,0,1,3502.355,3911.51Z" transform="translate(-3457.422 -3872.306)" fill="#fff"/>
    <path id="Path_14" data-name="Path 14" d="M3504.4,3204.309h-15V3200.9h15a.682.682,0,0,1,.682.682v2.046A.681.681,0,0,1,3504.4,3204.309Z" transform="translate(-3457.422 -3171.582)" fill="#fff"/>
    <path id="Path_15" data-name="Path 15" d="M789.229,5156.534h-43.3A1.539,1.539,0,0,1,744.4,5155v.341a1.538,1.538,0,0,0,1.534,1.534h43.3a1.538,1.538,0,0,0,1.534-1.534V5155A1.539,1.539,0,0,1,789.229,5156.534Z" transform="translate(-737.564 -5107.784)" fill="#1a237e" opacity="0.2"/>
    <path id="Path_16" data-name="Path 16" d="M745.934,1451.941h43.3a1.539,1.539,0,0,1,1.534,1.534v-.341a1.539,1.539,0,0,0-1.534-1.534h-43.3a1.539,1.539,0,0,0-1.534,1.534v.341A1.539,1.539,0,0,1,745.934,1451.941Z" transform="translate(-737.564 -1438.305)" fill="#fff" opacity="0.2"/>
    <path id="Path_17" data-name="Path 17" d="M1338.683,2500.618v3.075h4.412a4.167,4.167,0,0,1-4.412,3.231,4.944,4.944,0,0,1,0-9.886,4.441,4.441,0,0,1,3.139,1.227h0l2.335-2.334a7.857,7.857,0,0,0-5.474-2.133,8.182,8.182,0,1,0,0,16.364c4.725,0,7.833-3.322,7.833-8a9.777,9.777,0,0,0-.129-1.55Z" transform="translate(-1318.296 -2470.959)" fill="#fff"/>
    <g id="Group_1" data-name="Group 1" transform="translate(12.29 24.987)" opacity="0.2">
      <path id="Path_18" data-name="Path 18" d="M2233.2,3573.9v.341h4.33c.032-.112.06-.226.082-.341Z" transform="translate(-2225.018 -3566.153)" fill="#1a237e"/>
      <path id="Path_19" data-name="Path 19" d="M1348.082,3413.611a8.179,8.179,0,0,1-8.177-8.011c0,.056,0,.114,0,.17a8.181,8.181,0,0,0,8.182,8.182c4.725,0,7.834-3.322,7.834-8,0-.038,0-.072,0-.11C1355.809,3410.4,1352.729,3413.611,1348.082,3413.611Z" transform="translate(-1339.9 -3399.394)" fill="#1a237e"/>
      <path id="Path_20" data-name="Path 20" d="M1711.689,2730.418a4.448,4.448,0,0,0-3.139-1.227,4.931,4.931,0,0,0-4.85,4.943c0,.058.006.114.008.171a4.925,4.925,0,0,1,4.842-4.773,4.444,4.444,0,0,1,3.139,1.227v0l2.505-2.5c-.059-.055-.124-.1-.184-.157l-2.32,2.321Z" transform="translate(-1700.368 -2728.1)" fill="#1a237e"/>
    </g>
    <path id="Path_21" data-name="Path 21" d="M3503.036,2791.841v-.341a.681.681,0,0,1-.681.681H3489.4v.341h12.955A.68.68,0,0,0,3503.036,2791.841Z" transform="translate(-3457.422 -2765.932)" fill="#1a237e" opacity="0.2"/>
    <path id="Path_22" data-name="Path 22" d="M3502.355,4206.581H3489.4v.341h12.955a.681.681,0,0,0,.681-.681v-.341A.68.68,0,0,1,3502.355,4206.581Z" transform="translate(-3457.422 -4167.376)" fill="#1a237e" opacity="0.2"/>
    <path id="Path_23" data-name="Path 23" d="M3504.4,3499.382h-15v.34h15a.681.681,0,0,0,.682-.681v-.341A.682.682,0,0,1,3504.4,3499.382Z" transform="translate(-3457.422 -3466.655)" fill="#1a237e" opacity="0.2"/>
    <path id="Path_24" data-name="Path 24" d="M58.99,12.9,47.745,9.873V1.519A1.53,1.53,0,0,0,46.215,0H13.821a1.53,1.53,0,0,0-1.53,1.52V9.84L.924,13.977A1.484,1.484,0,0,0,.118,15.9L6.836,34.364V47.556A1.539,1.539,0,0,0,8.37,49.09h43.3A1.539,1.539,0,0,0,53.2,47.556V39.983l6.762-25.235A1.485,1.485,0,0,0,58.99,12.9Z" transform="translate(0)" fill="url(#radial-gradient)"/>
  </g>
</svg>
